<svg width="285" height="169" viewBox="0 0 285 169" fill="none" xmlns="http://www.w3.org/2000/svg" id="Rating">
<g filter="url(#filter0_d_8_95)">
<rect x="48" y="48.522" width="197" height="80" rx="8" fill="white" shape-rendering="crispEdges"/>
<rect x="68" y="66.522" width="44" height="44" rx="6" fill="#E9F8F3"/>
<path d="M90.4125 94.4001L95.1375 97.4001C95.7469 97.7845 96.4969 97.2126 96.3187 96.5095L94.95 91.1282C94.913 90.9791 94.9189 90.8225 94.967 90.6765C95.0151 90.5306 95.1034 90.4012 95.2219 90.3032L99.4594 86.7688C100.012 86.3095 99.7312 85.3813 99.0094 85.3345L93.4781 84.9782C93.3272 84.9694 93.1821 84.9169 93.0606 84.827C92.939 84.7371 92.8463 84.6137 92.7937 84.472L90.7312 79.2782C90.6767 79.1281 90.5772 78.9985 90.4464 78.9069C90.3156 78.8152 90.1597 78.7661 90 78.7661C89.8403 78.7661 89.6844 78.8152 89.5536 78.9069C89.4228 78.9985 89.3233 79.1281 89.2687 79.2782L87.2062 84.472C87.1537 84.6137 87.061 84.7371 86.9394 84.827C86.8179 84.9169 86.6728 84.9694 86.5219 84.9782L80.9906 85.3345C80.2687 85.3813 79.9875 86.3095 80.5406 86.7688L84.7781 90.3032C84.8966 90.4012 84.9849 90.5306 85.033 90.6765C85.0811 90.8225 85.087 90.9791 85.05 91.1282L83.7844 96.1157C83.5687 96.9595 84.4687 97.6438 85.1906 97.1845L89.5875 94.4001C89.7108 94.3217 89.8539 94.2801 90 94.2801C90.1461 94.2801 90.2892 94.3217 90.4125 94.4001Z" fill="#20B486" stroke="#20B486" stroke-width="1.5" stroke-linecap="round" stroke-linejoin="round"/>
<path d="M126.34 81.062H134.97L134.92 82.662H127.92L127.55 87.332C128.03 86.8853 128.553 86.5686 129.12 86.382C129.693 86.1886 130.313 86.092 130.98 86.092C131.853 86.092 132.657 86.272 133.39 86.632C134.13 86.9853 134.723 87.512 135.17 88.212C135.617 88.9053 135.84 89.7653 135.84 90.792C135.84 91.792 135.623 92.662 135.19 93.402C134.757 94.142 134.147 94.7186 133.36 95.132C132.573 95.5386 131.65 95.742 130.59 95.742C129.697 95.742 128.87 95.5853 128.11 95.272C127.35 94.9586 126.697 94.522 126.15 93.962C125.61 93.402 125.213 92.7586 124.96 92.032L126.56 91.362C126.8 91.9086 127.1 92.3953 127.46 92.822C127.827 93.2486 128.26 93.582 128.76 93.822C129.26 94.062 129.827 94.182 130.46 94.182C131.487 94.182 132.31 93.8853 132.93 93.292C133.557 92.692 133.87 91.8786 133.87 90.852C133.87 90.212 133.723 89.6553 133.43 89.182C133.137 88.702 132.74 88.3286 132.24 88.062C131.747 87.7953 131.2 87.662 130.6 87.662C130.207 87.662 129.84 87.6986 129.5 87.772C129.16 87.8386 128.823 87.972 128.49 88.172C128.157 88.372 127.807 88.6753 127.44 89.082C127.4 89.102 127.37 89.112 127.35 89.112C127.33 89.1053 127.297 89.092 127.25 89.072L125.69 88.582L126.34 81.062ZM137.913 95.522V93.162H140.113V95.522H137.913ZM147.454 80.862C149.021 80.862 150.268 81.492 151.194 82.752C152.128 84.0053 152.594 85.862 152.594 88.322C152.594 90.7686 152.131 92.6186 151.204 93.872C150.278 95.1186 149.021 95.742 147.434 95.742C145.854 95.742 144.601 95.122 143.674 93.882C142.748 92.6353 142.284 90.792 142.284 88.352C142.284 86.7053 142.498 85.3253 142.924 84.212C143.351 83.0986 143.951 82.262 144.724 81.702C145.498 81.142 146.408 80.862 147.454 80.862ZM147.454 94.142C148.488 94.142 149.268 93.6886 149.794 92.782C150.328 91.8686 150.594 90.3853 150.594 88.332C150.594 86.2386 150.324 84.732 149.784 83.812C149.251 82.8853 148.471 82.422 147.444 82.422C146.424 82.422 145.638 82.8886 145.084 83.822C144.538 84.7486 144.264 86.252 144.264 88.332C144.264 90.3786 144.538 91.8586 145.084 92.772C145.631 93.6853 146.421 94.142 147.454 94.142ZM175.039 95.522H173.079L170.439 89.292H166.549V95.522H164.699V81.062H170.299C171.339 81.062 172.209 81.222 172.909 81.542C173.609 81.8553 174.132 82.3086 174.479 82.902C174.826 83.4886 174.999 84.192 174.999 85.012C174.999 85.7986 174.859 86.452 174.579 86.972C174.306 87.492 173.956 87.912 173.529 88.232C173.102 88.5453 172.659 88.7886 172.199 88.962L175.039 95.522ZM169.699 87.762C170.786 87.762 171.626 87.542 172.219 87.102C172.812 86.6553 173.109 85.9953 173.109 85.122C173.109 84.2686 172.842 83.632 172.309 83.212C171.782 82.7853 171.059 82.572 170.139 82.572H166.549V87.762H169.699ZM180.519 95.722C179.852 95.722 179.262 95.6053 178.749 95.372C178.236 95.132 177.832 94.7886 177.539 94.342C177.252 93.8953 177.109 93.3553 177.109 92.722C177.109 91.5753 177.509 90.722 178.309 90.162C179.109 89.602 180.392 89.302 182.159 89.262L184.009 89.212V88.402C184.009 87.7686 183.819 87.2686 183.439 86.902C183.059 86.5286 182.469 86.342 181.669 86.342C181.076 86.3486 180.552 86.4886 180.099 86.762C179.652 87.0353 179.362 87.482 179.229 88.102H177.599C177.639 87.4286 177.829 86.862 178.169 86.402C178.509 85.9353 178.982 85.582 179.589 85.342C180.202 85.102 180.926 84.982 181.759 84.982C182.659 84.982 183.406 85.1086 183.999 85.362C184.599 85.6153 185.046 85.9886 185.339 86.482C185.639 86.9753 185.789 87.582 185.789 88.302V95.522H184.209L184.079 93.582C183.679 94.3886 183.169 94.9486 182.549 95.262C181.936 95.5686 181.259 95.722 180.519 95.722ZM181.079 94.392C181.426 94.392 181.769 94.3286 182.109 94.202C182.456 94.0753 182.772 93.9053 183.059 93.692C183.346 93.472 183.572 93.2286 183.739 92.962C183.912 92.6886 184.002 92.4086 184.009 92.122V90.352L182.469 90.382C181.682 90.3953 181.022 90.4753 180.489 90.622C179.962 90.7686 179.566 90.9986 179.299 91.312C179.039 91.6253 178.909 92.0353 178.909 92.542C178.909 93.122 179.109 93.5753 179.509 93.902C179.916 94.2286 180.439 94.392 181.079 94.392ZM193.713 86.532H191.383V92.962C191.383 93.3286 191.42 93.5986 191.493 93.772C191.573 93.9386 191.703 94.0453 191.883 94.092C192.07 94.1386 192.323 94.162 192.643 94.162H193.773V95.402C193.646 95.4486 193.453 95.4886 193.193 95.522C192.94 95.5553 192.623 95.572 192.243 95.572C191.53 95.572 190.976 95.4753 190.583 95.282C190.19 95.0886 189.913 94.802 189.753 94.422C189.6 94.042 189.523 93.5753 189.523 93.022V86.532H187.843V85.182H189.573L190.023 82.172H191.383V85.172H193.713V86.532ZM198.37 85.182V95.522H196.58V85.182H198.37ZM198.41 81.072V82.992H196.52V81.072H198.41ZM201.741 95.522V85.182H203.531V86.682C203.698 86.3953 203.928 86.1253 204.221 85.872C204.521 85.6186 204.881 85.4153 205.301 85.262C205.728 85.1086 206.218 85.032 206.771 85.032C207.424 85.032 208.024 85.162 208.571 85.422C209.124 85.682 209.564 86.0886 209.891 86.642C210.224 87.1886 210.391 87.8953 210.391 88.762V95.522H208.541V88.942C208.541 88.1353 208.328 87.5386 207.901 87.152C207.481 86.7586 206.934 86.562 206.261 86.562C205.794 86.562 205.358 86.6386 204.951 86.792C204.544 86.9386 204.214 87.1653 203.961 87.472C203.708 87.772 203.581 88.152 203.581 88.612V95.522H201.741ZM217.644 98.942C216.017 98.942 214.751 98.7053 213.844 98.232C212.944 97.7653 212.494 97.0953 212.494 96.222C212.494 95.8486 212.581 95.532 212.754 95.272C212.927 95.0053 213.134 94.7853 213.374 94.612C213.614 94.4386 213.837 94.302 214.044 94.202C214.251 94.0953 214.384 94.0186 214.444 93.972C214.331 93.9053 214.187 93.822 214.014 93.722C213.847 93.622 213.701 93.4886 213.574 93.322C213.447 93.1553 213.384 92.9386 213.384 92.672C213.384 92.3453 213.537 92.0453 213.844 91.772C214.151 91.4986 214.604 91.2953 215.204 91.162C214.597 90.8553 214.124 90.4486 213.784 89.942C213.444 89.4353 213.274 88.8853 213.274 88.292C213.274 87.6253 213.454 87.0453 213.814 86.552C214.181 86.0586 214.701 85.682 215.374 85.422C216.047 85.1553 216.847 85.022 217.774 85.022C218.447 85.022 219.014 85.102 219.474 85.262C219.934 85.4153 220.361 85.6353 220.754 85.922C220.861 85.8753 221.027 85.8053 221.254 85.712C221.487 85.612 221.744 85.5053 222.024 85.392C222.304 85.2786 222.564 85.172 222.804 85.072C223.051 84.9653 223.247 84.8853 223.394 84.832L223.384 86.542L221.574 86.882C221.674 87.0953 221.754 87.3286 221.814 87.582C221.881 87.8353 221.914 88.072 221.914 88.292C221.914 88.8986 221.754 89.4486 221.434 89.942C221.121 90.4353 220.644 90.8286 220.004 91.122C219.364 91.4153 218.564 91.562 217.604 91.562C217.524 91.562 217.421 91.562 217.294 91.562C217.174 91.5553 217.071 91.5486 216.984 91.542C216.277 91.562 215.791 91.642 215.524 91.782C215.257 91.9153 215.124 92.0653 215.124 92.232C215.124 92.4253 215.274 92.5586 215.574 92.632C215.874 92.7053 216.384 92.7686 217.104 92.822C217.364 92.8353 217.684 92.852 218.064 92.872C218.451 92.892 218.877 92.9186 219.344 92.952C220.431 93.0186 221.267 93.2953 221.854 93.782C222.441 94.2686 222.734 94.9253 222.734 95.752C222.734 96.692 222.314 97.4586 221.474 98.052C220.634 98.6453 219.357 98.942 217.644 98.942ZM217.974 97.752C218.927 97.752 219.657 97.6086 220.164 97.322C220.671 97.0353 220.924 96.602 220.924 96.022C220.924 95.6086 220.767 95.272 220.454 95.012C220.147 94.7453 219.677 94.592 219.044 94.552L216.144 94.362C215.884 94.3486 215.614 94.4153 215.334 94.562C215.054 94.702 214.814 94.8986 214.614 95.152C214.421 95.4053 214.324 95.692 214.324 96.012C214.324 96.5586 214.621 96.9853 215.214 97.292C215.814 97.5986 216.734 97.752 217.974 97.752ZM217.654 90.372C218.401 90.372 219.001 90.1986 219.454 89.852C219.914 89.5053 220.144 88.992 220.144 88.312C220.144 87.612 219.914 87.0786 219.454 86.712C219.001 86.3453 218.401 86.162 217.654 86.162C216.901 86.162 216.291 86.3486 215.824 86.722C215.364 87.0886 215.134 87.6186 215.134 88.312C215.134 88.9653 215.354 89.472 215.794 89.832C216.234 90.192 216.854 90.372 217.654 90.372Z" fill="#52565C"/>
</g>
<defs>
<filter id="filter0_d_8_95" x="0" y="0.521973" width="285" height="168" filterUnits="userSpaceOnUse" color-interpolation-filters="sRGB">
<feFlood flood-opacity="0" result="BackgroundImageFix"/>
<feColorMatrix in="SourceAlpha" type="matrix" values="0 0 0 0 0 0 0 0 0 0 0 0 0 0 0 0 0 0 127 0" result="hardAlpha"/>
<feOffset dx="-4" dy="-4"/>
<feGaussianBlur stdDeviation="22"/>
<feComposite in2="hardAlpha" operator="out"/>
<feColorMatrix type="matrix" values="0 0 0 0 0 0 0 0 0 0 0 0 0 0 0 0 0 0 0.08 0"/>
<feBlend mode="normal" in2="BackgroundImageFix" result="effect1_dropShadow_8_95"/>
<feBlend mode="normal" in="SourceGraphic" in2="effect1_dropShadow_8_95" result="shape"/>
</filter>
</defs>
</svg>
