<svg width="34" height="34" viewBox="0 0 34 34" fill="none" xmlns="http://www.w3.org/2000/svg" id="Yellowspark">
<path d="M22.991 21.4259L21.5453 32.3888C21.5087 32.6523 21.3925 32.8983 21.212 33.0937C21.0316 33.2892 20.7957 33.4248 20.5359 33.4822C20.2762 33.5396 20.0051 33.5162 19.7591 33.4151C19.5131 33.3139 19.3039 33.1399 19.1596 32.9164L13.2258 23.5856C13.1226 23.4249 12.9859 23.2886 12.8249 23.1859C12.664 23.0833 12.4827 23.0168 12.2935 22.991L1.33059 21.5453C1.06711 21.5088 0.821113 21.3925 0.625657 21.2121C0.430201 21.0316 0.294646 20.7957 0.237204 20.536C0.179762 20.2762 0.203184 20.0051 0.304324 19.7591C0.405463 19.5131 0.579475 19.3039 0.802982 19.1597L10.1338 13.2258C10.2945 13.1227 10.4308 12.9859 10.5335 12.825C10.6361 12.664 10.7026 12.4827 10.7284 12.2936L12.1741 1.33062C12.2106 1.06714 12.3269 0.821142 12.5073 0.625686C12.6878 0.43023 12.9237 0.294676 13.1834 0.237234C13.4432 0.179792 13.7143 0.203214 13.9603 0.304353C14.2063 0.405493 14.4155 0.579505 14.5597 0.803012L20.4936 10.1339C20.5967 10.2945 20.7335 10.4309 20.8944 10.5335C21.0554 10.6362 21.2367 10.7027 21.4258 10.7284L32.3888 12.1741C32.6523 12.2107 32.8983 12.3269 33.0937 12.5074C33.2892 12.6878 33.4247 12.9237 33.4822 13.1835C33.5396 13.4432 33.5162 13.7143 33.415 13.9603C33.3139 14.2063 33.1399 14.4155 32.9164 14.5598L23.5855 20.4936C23.4249 20.5968 23.2885 20.7335 23.1859 20.8945C23.0832 21.0554 23.0167 21.2367 22.991 21.4259V21.4259Z" fill="#FFC27A"/>
</svg>


